<svg width="388" height="320" viewBox="0 0 388 320" fill="none" xmlns="http://www.w3.org/2000/svg">
<path fill-rule="evenodd" clip-rule="evenodd" d="M224.803 104.559H258.348L273 151.552V168H118V151.552L132.652 104.559H173.6L198.604 118.657H156.172C151.699 118.657 148.075 122.338 148.075 126.881C148.075 131.424 151.699 135.105 156.172 135.105H233.286C237.759 135.105 241.383 131.424 241.383 126.881C241.383 122.338 237.759 118.657 233.286 118.657H217.125L224.803 104.559Z" fill="#DE2424"/>
<path d="M195.886 104.559L165.04 87.2504L204.445 14.8811L248.015 39.3958L212.465 104.559H224.804L262.744 35.1664L200.204 0L150.311 91.4797L173.6 104.559H195.886Z" fill="#DE2424"/>
<path d="M36.7589 302C36.7589 295.34 31.6589 291.92 25.6589 290.6V290.3C30.6989 289.04 34.4789 286.1 34.4789 280.64C34.4789 273.8 28.7189 270.14 19.8389 270.14H0.158936V272.3C2.31894 272.48 5.13894 272.36 5.13894 275.36V308.78C5.13894 311.84 2.37894 311.72 0.158936 311.9V314H21.1589C30.2189 314 36.7589 309.38 36.7589 302ZM26.1389 281C26.1389 285.8 23.8589 288.26 20.0789 288.98C18.7589 289.46 15.0389 289.46 13.4189 289.46V274.7C13.4189 272.66 15.4589 272.36 17.1989 272.36C23.1989 272.36 26.1389 274.52 26.1389 281ZM27.8189 302.06C27.8189 307.58 25.5389 311.72 19.5389 311.72C18.9989 311.72 15.6989 311.54 15.2789 311.18C14.0789 310.88 13.4189 310.16 13.4189 308.96V292.16H14.4389C21.3989 292.16 27.8189 292.94 27.8189 302.06Z" fill="white"/>
<path d="M95.7061 314.06V311.96C94.7461 311.9 93.1861 311.84 92.4061 311.36C91.3261 311 90.6661 309.98 90.6661 308.3V275.9C90.6661 274.34 91.0861 273.26 92.4661 272.84C92.7661 272.54 94.7461 272.42 95.6461 272.36V270.14H81.7861L70.9861 302.3H70.7461L58.5661 270.14H44.9461V272.36C47.1061 272.54 50.1661 272.36 50.1661 275.36V308.24C50.1661 311.36 46.9861 311.96 44.5261 311.96V314.06H58.5061V311.96C55.7461 311.78 52.6261 311.18 52.6261 307.76V276.38H53.0461L67.2061 314.06H69.5461L82.2061 276.44H82.6861V308.78C82.6861 311.9 79.9261 311.78 77.6461 311.96V314.06H95.7061Z" fill="white"/>
<path d="M134.63 302.54C134.63 295.28 130.31 290.72 120.23 286.76C114.59 284.54 111.17 282.44 111.17 278.18C111.17 274.28 114.17 271.58 118.79 271.58C126.59 271.58 131.03 280.22 131.51 282.98H133.37L132.17 269.42H130.61C130.37 270.62 130.07 272.18 128.57 272.18C127.67 272.18 124.01 269.3 118.13 269.3C108.95 269.24 104.81 274.7 104.81 280.4C104.81 286.4 108.23 291.26 115.31 294.26C119.69 296.12 127.91 298.58 127.91 304.64C127.91 308.36 125.75 312.32 119.21 312.32C110.93 312.32 106.01 304.82 105.23 299.24H103.43L104.45 314.66H106.07C106.55 312.74 107.27 311.9 108.53 311.9C109.85 311.84 114.47 314.72 119.63 314.72C128.69 314.72 134.63 310.04 134.63 302.54Z" fill="white"/>
<path d="M198.921 310.76V310.16C192.261 308.48 187.041 305.12 183.201 300.92C187.281 299.12 190.941 296.78 193.821 294.8H195.801C196.161 294.74 196.401 294.44 196.401 294.08C196.401 293.9 196.281 293.66 196.041 293.54L188.241 288.56C188.241 288.74 188.301 288.92 188.301 289.1C188.301 291.56 183.681 298.04 182.301 299.9C180.441 297.62 178.881 295.1 177.681 292.52L177.021 292.88C178.881 304.4 184.581 313.94 191.541 317.9C192.801 314.54 195.081 312.44 198.921 310.76ZM198.621 283.22C198.621 282.92 198.501 282.68 198.321 282.5L194.301 277.64L191.841 282.08H191.601V273.8L193.221 272.72C193.461 272.54 193.521 272.3 193.521 272.06C193.521 271.82 193.461 271.52 193.221 271.4L186.141 266.3L183.321 270.02H166.341C168.741 268.7 170.481 267.44 171.981 266.24L174.021 265.64C174.321 265.58 174.441 265.28 174.441 265.04C174.441 264.8 174.321 264.56 174.021 264.5L163.881 262.94C164.241 263.36 164.541 264.14 164.541 264.68C164.541 266.48 164.181 268.34 163.761 270.02H156.561L147.741 266.84C148.221 267.8 148.401 268.88 148.401 270.2V282.08H146.961C145.101 282.08 143.301 281.9 141.501 281.42L142.701 284.12H156.201C156.201 284.24 156.261 284.36 156.261 284.48C156.261 288.32 145.521 299.36 142.521 301.4L142.821 301.88C151.161 299.78 158.181 294.8 163.521 289.58L165.141 289.22C165.501 289.1 165.621 288.86 165.621 288.62C165.621 288.38 165.501 288.14 165.201 288.02L156.681 284.12H175.761C173.421 288.02 163.221 294.32 159.201 296.06L159.441 296.66C161.841 296.42 164.241 295.94 166.521 295.4V318.2C166.521 318.74 166.941 318.98 167.361 318.98H169.041C171.321 318.98 174.381 318.74 174.381 316.64V292.94C177.801 291.62 180.741 290.12 182.841 288.8L184.521 288.68C184.881 288.68 185.181 288.32 185.181 288.02C185.181 287.78 185.061 287.6 184.881 287.48L178.581 284.12H197.841C198.321 284.12 198.621 283.64 198.621 283.22ZM166.461 302.84C166.461 302.6 166.281 302.36 165.981 302.24L156.861 298.1V298.46C156.861 303.44 146.481 314.3 142.701 316.94L143.001 317.42C151.461 315.44 159.501 309.32 164.301 303.86L165.921 303.5C166.281 303.38 166.461 303.14 166.461 302.84ZM183.621 282.08H179.661V272.06H183.621V282.08ZM172.221 282.08H168.141V272.06H172.221V282.08ZM160.701 282.08H156.381V272.06H160.701V282.08Z" fill="white"/>
<path d="M261.621 296.9C261.621 296.66 261.501 296.42 261.321 296.24L258.441 293.9C259.461 293.54 260.361 292.22 260.361 291.32C260.361 287.54 254.961 286.94 252.261 286.82L252.081 287.36C254.241 288.86 254.721 291.14 256.101 293.18L254.241 295.82H249.981C249.921 294.98 249.861 294.2 249.861 293.3L249.801 289.28L251.001 288.62C251.241 288.44 251.301 288.14 251.301 287.9C251.301 287.6 251.121 287.3 250.821 287.24L243.021 286.1C243.441 286.7 243.501 287.54 243.501 289.04L243.621 295.82H238.641V290.9C239.121 290.78 239.601 290.66 240.021 290.48L241.941 290.54C242.361 290.54 242.601 290.24 242.601 289.88C242.601 289.7 242.541 289.52 242.361 289.4L237.441 285.62H259.761C260.241 285.62 260.601 285.08 260.601 284.6C260.601 284.36 260.481 284.12 260.301 283.94L255.561 280.46L252.921 283.58H245.361V278.96H255.801C256.281 278.96 256.581 278.48 256.581 278C256.581 277.76 256.461 277.46 256.281 277.34L252.021 273.92L249.681 276.92H245.361V272.84H258.921C259.401 272.84 259.761 272.36 259.761 271.88C259.761 271.64 259.641 271.4 259.461 271.22L254.661 267.26L252.141 270.8H245.421C248.181 269.24 250.401 267.56 251.961 266.06L253.701 265.64C254.001 265.58 254.181 265.28 254.181 265.04C254.181 264.74 254.001 264.44 253.641 264.32L244.041 262.52C244.341 262.88 244.401 263.54 244.401 264.08C244.401 265.76 243.321 269.24 242.841 270.8H238.281C238.701 270.14 239.001 269.24 239.001 268.46C239.001 264.02 231.621 263 228.561 262.76L228.321 263.24C231.141 265.4 232.221 267.74 233.721 270.8H230.781C229.041 270.8 227.241 270.68 225.441 270.2L226.701 272.84H237.621V276.92H233.241C231.501 276.92 229.641 276.8 227.901 276.32L229.101 278.96H237.621V283.58H230.721C228.921 283.58 227.121 283.34 225.321 282.8L226.581 285.62H236.361C234.621 288.08 226.941 291.8 224.241 292.82L224.361 293.36C226.701 293.3 229.401 293 232.101 292.46V295.82H228.381C226.401 295.82 225.381 295.64 223.821 295.22L225.081 297.86H232.101V301.46C230.121 301.64 228.381 301.76 227.421 301.76C226.881 301.76 226.101 301.7 225.621 301.4L227.301 309.26C227.361 309.56 227.541 309.68 227.781 309.68C227.961 309.68 228.141 309.56 228.261 309.32L228.801 307.94C229.641 307.7 230.781 307.22 232.101 306.68V309.86C232.101 310.58 231.501 311.3 230.661 311.3H225.861V311.84C229.041 312.92 230.481 315.74 230.841 319.1C237.141 317.18 238.641 315.38 238.641 312.08V303.56C240.561 302.54 242.361 301.64 243.621 300.98L243.501 300.32C242.181 300.5 240.441 300.74 238.641 300.92V297.86H243.801C244.281 302.36 245.361 306.32 246.861 309.5C244.041 312.74 240.801 315.86 237.921 317.78L238.281 318.32C242.061 317.12 245.601 315.26 248.781 312.98C251.241 316.64 254.241 318.74 257.181 318.74C259.581 318.74 261.441 316.16 261.441 314.3C261.441 312.74 259.941 313.4 259.941 310.22C259.941 309.08 260.121 307.4 260.481 305L259.941 304.82C258.201 309.86 257.301 310.76 256.641 310.76C255.981 310.76 254.961 310.04 253.941 308.6C255.681 306.8 257.181 304.94 258.441 303.02L260.121 302.6C260.481 302.48 260.661 302.24 260.661 302C260.661 301.76 260.541 301.52 260.241 301.4L254.061 297.86H260.781C261.261 297.86 261.621 297.38 261.621 296.9ZM224.541 269C224.541 268.76 224.481 268.52 224.301 268.34L219.561 264.44L217.161 267.92H211.161C209.181 267.92 208.401 267.86 206.601 267.32L207.861 269.96H223.761C224.241 269.96 224.541 269.48 224.541 269ZM226.941 276.26C226.941 275.96 226.821 275.72 226.641 275.54L220.821 270.92L218.001 275.18H210.321C208.461 275.18 206.601 275.06 204.801 274.52L206.061 277.22H226.161C226.641 277.22 226.941 276.74 226.941 276.26ZM224.541 283.28C224.541 283.04 224.481 282.8 224.301 282.62L219.561 278.66L217.161 282.2H211.161C209.181 282.2 208.401 281.96 206.601 281.6L207.801 284.24H223.761C224.241 284.24 224.541 283.76 224.541 283.28ZM224.421 290.36C224.421 290.12 224.361 289.88 224.181 289.7L219.561 285.86L217.161 289.28H211.161C209.181 289.28 208.401 289.1 206.601 288.68L207.861 291.32H223.641C224.121 291.32 224.421 290.84 224.421 290.36ZM225.681 298.76C225.681 298.52 225.561 298.28 225.381 298.1L219.321 293.66L216.621 297.56H213.981L206.001 293.96C206.481 294.86 206.661 296 206.661 297.26V317.78C206.661 318.26 207.021 318.5 207.441 318.5H208.701C210.741 318.5 213.801 318.32 213.801 316.34V312.02H217.101V315.38C217.101 315.86 217.461 316.16 217.941 316.16C218.061 316.16 222.501 315.74 222.621 315.74C223.581 315.62 224.181 314.9 224.181 313.94V300.2L225.321 299.42C225.561 299.24 225.681 299 225.681 298.76ZM253.941 297.86C253.941 299.54 252.321 302.24 251.421 303.56C250.881 301.94 250.461 300.02 250.161 297.86H253.941ZM217.101 309.98H213.801V299.6H217.101V309.98Z" fill="white"/>
<path d="M324.981 275.3C324.981 274.88 324.801 274.46 324.441 274.16L317.361 268.22L314.301 272.3H308.421V267.38L310.041 266.18C310.221 266.06 310.341 265.82 310.341 265.64C310.341 265.28 310.101 264.98 309.681 264.92L299.781 263.96C300.261 264.86 300.501 266 300.501 267.26V272.3H294.501C294.081 270.26 293.241 268.46 292.101 266.72L291.381 266.84V267.38C291.381 274.52 287.001 275.96 287.001 278.54C287.001 280.34 288.441 281.36 290.361 281.36C292.701 281.36 294.921 279.8 294.921 276.02C294.921 275.42 294.861 274.88 294.861 274.34H314.961C314.541 275.78 313.941 277.22 313.221 278.54L312.381 277.88L309.501 282.08H296.721C294.981 282.08 293.241 281.96 291.561 281.54L292.761 284.12H317.721C318.201 284.12 318.501 283.64 318.501 283.16C318.501 282.92 318.441 282.68 318.201 282.5L314.661 279.68C317.121 278.78 319.641 277.7 321.381 276.8L323.781 276.74C324.501 276.74 324.981 276.02 324.981 275.3ZM324.441 310.7C324.441 308.42 321.021 309.92 320.601 306.92L319.881 301.94H319.041L318.141 307.58C317.781 309.68 317.121 310.64 316.101 310.64H314.241C313.581 310.64 313.221 310.16 313.221 309.5V294.08H322.881C323.361 294.08 323.721 293.6 323.721 293.12C323.721 292.88 323.601 292.64 323.421 292.46L317.541 287.84L314.661 292.04H293.661C291.921 292.04 290.241 291.92 288.501 291.44L289.701 294.08H294.921C294.741 305.84 291.321 313.52 283.281 318.56L283.761 319.22C296.421 316.16 302.421 306.68 302.661 294.08H305.721V312.26C305.721 315.74 308.361 318.32 311.721 318.32H316.941C321.261 318.32 324.441 313.82 324.441 310.7ZM290.541 270.5C290.541 270.26 290.421 270.02 290.181 269.78L283.221 264.2L280.581 268.34H276.381L269.121 264.68C269.601 265.58 269.841 266.72 269.841 268.88V318.32C269.841 318.74 270.201 318.98 270.561 318.98H271.821C273.681 318.98 276.441 318.8 276.441 316.94V301.64C279.261 303.14 280.701 305.78 281.121 308.84C288.201 305.84 289.221 303.86 289.221 299.36C289.221 295.82 286.641 290.54 280.101 284.54C282.741 281.24 286.281 275.96 288.261 271.94L290.001 271.28C290.361 271.16 290.541 270.86 290.541 270.5ZM282.381 296.48C282.381 299.96 281.541 300.68 279.861 300.68H276.441V270.38H281.061C280.701 274.4 279.741 281.3 278.901 284.78C280.881 288.44 282.381 293.9 282.381 296.48Z" fill="white"/>
<path d="M387.081 278.54C387.081 277.16 383.901 277.82 383.601 276.14L383.301 274.46C383.421 274.28 383.481 274.04 383.481 273.8V268.34L384.561 267.74C384.801 267.56 384.921 267.32 384.921 267.02C384.921 266.78 384.801 266.48 384.561 266.36L379.281 263.18L376.881 265.88H372.321C370.461 265.88 368.661 265.7 366.921 265.28L368.061 267.92H377.361V272.18H375.081L367.761 269.96C368.241 270.74 368.481 271.7 368.481 272.78V279.62C368.481 281.9 370.221 283.64 372.981 283.64H381.561C384.741 283.64 387.081 280.4 387.081 278.54ZM367.641 278.54C367.641 277.16 364.521 277.76 364.161 276.14L363.801 274.4C363.921 274.22 363.981 273.98 363.981 273.74V268.28L365.061 267.68C365.301 267.56 365.421 267.26 365.421 267.02C365.421 266.72 365.301 266.42 365.061 266.3L359.781 263.12L357.321 265.88H352.221C350.421 265.88 348.621 265.7 346.821 265.28L348.021 267.92H357.861V272.18H355.641L348.261 269.96C348.801 270.74 348.981 271.7 348.981 272.78V279.62C348.981 281.9 350.781 283.64 353.541 283.64H362.061C365.241 283.64 367.641 280.4 367.641 278.54ZM346.281 274.16C346.281 270.8 340.701 267.38 333.141 266.96L332.781 267.8C335.241 269.3 338.301 273.02 339.441 275.9C340.401 278.3 341.121 278.84 342.441 278.84C344.301 278.84 346.281 276.62 346.281 274.16ZM387.681 309.56L387.321 308.96C385.941 309.26 384.441 309.56 382.821 309.86C383.961 309.26 384.441 307.94 384.441 306.8C384.441 301.64 371.361 300.8 368.421 300.62L368.121 301.28C371.841 302.66 375.261 305.72 377.901 308.42C378.861 309.44 379.521 309.98 380.181 310.28C372.441 311.36 363.261 311.84 355.821 311.84C353.481 311.84 351.261 311.24 349.281 310.1C355.401 309.32 362.061 306.62 365.661 304.34L367.281 304.28C367.761 304.28 368.001 303.98 368.001 303.62C368.001 303.44 367.881 303.26 367.641 303.14L359.421 300.02H386.601C387.021 300.02 387.381 299.48 387.381 299C387.381 298.76 387.321 298.52 387.141 298.4L382.221 294.44L379.761 297.98H376.761V291.98H385.161C385.581 291.98 385.941 291.44 385.941 290.9C385.941 290.66 385.881 290.48 385.701 290.3L380.841 286.34L378.321 289.94H376.761V287.12L378.081 286.28C378.321 286.16 378.381 285.98 378.381 285.8C378.381 285.44 378.081 285.2 377.661 285.14L368.301 284.42C368.781 285.2 369.021 286.16 369.021 287.24V289.94H363.801V287.12L365.181 286.28C365.361 286.16 365.421 285.98 365.421 285.8C365.421 285.5 365.121 285.2 364.701 285.14L355.341 284.42C355.821 285.2 356.061 286.16 356.061 287.24V289.94H354.381C352.521 289.94 350.601 289.7 348.861 289.22L350.121 291.98H356.061V297.98H353.121C351.261 297.98 349.281 297.74 347.601 297.26L348.801 300.02H358.641C358.341 303.2 350.721 308.18 348.261 309.44C347.661 308.96 347.001 308.48 346.461 307.88V293.18L347.841 292.34C348.081 292.16 348.201 291.86 348.201 291.56C348.201 291.32 348.081 291.02 347.841 290.9L340.881 285.86L337.761 290.54H336.201C334.341 290.54 332.541 290.36 330.741 289.94L331.941 292.58H338.481V308.36L332.841 310.16C332.361 310.16 331.701 309.98 331.281 309.68L334.401 318.02C334.521 318.38 334.821 318.56 335.121 318.56C335.421 318.56 335.721 318.32 335.841 317.9L336.081 316.82L344.481 309.14C347.721 314.78 353.421 318.14 359.781 318.14H383.241C383.361 314.9 384.861 311.6 387.681 309.56ZM382.101 275.06L381.861 276.56C381.621 277.88 380.961 278.66 379.881 278.66H375.981C375.201 278.66 374.481 278.18 374.481 277.34V274.22H377.361V274.82C377.361 275.18 377.661 275.36 378.021 275.36C378.801 275.36 381.081 275.24 382.101 275.06ZM362.601 275.06L362.361 276.56C362.121 277.88 361.461 278.66 360.381 278.66H356.481C355.701 278.66 354.981 278.18 354.981 277.34V274.22H357.861V274.82C357.861 275.18 358.221 275.36 358.521 275.36C359.301 275.36 361.581 275.24 362.601 275.06ZM369.021 297.98H363.801V291.98H369.021V297.98Z" fill="white"/>
<path d="M160.492 221.48C160.492 221.32 160.428 221.192 160.332 221.128L157.26 218.952L155.692 220.872H152.908C153.164 220.552 153.42 220.2 153.644 219.88L154.828 219.432C154.956 219.4 155.02 219.272 155.02 219.176C155.02 219.048 154.924 218.92 154.796 218.888L149.516 217.864C149.612 217.992 149.676 218.184 149.676 218.376C149.676 219.816 145.868 225.384 144.844 226.536L145.068 226.76C146.796 225.992 149.74 224.168 151.916 221.96H152.428C154.028 223.624 152.204 226.6 154.636 226.6C155.756 226.6 157.004 225.352 157.004 224.456C157.004 223.688 156.204 222.696 154.668 221.96H160.076C160.332 221.96 160.492 221.704 160.492 221.48ZM175.308 221.448C175.308 221.32 175.276 221.192 175.148 221.128L172.076 218.952L170.444 220.872H166.06C166.348 220.552 166.604 220.2 166.828 219.848L168.012 219.4C168.14 219.368 168.204 219.24 168.204 219.144C168.204 219.016 168.108 218.888 167.98 218.824L162.668 217.864C162.732 217.992 162.796 218.184 162.796 218.408C162.796 219.912 159.724 224.648 158.7 225.736L158.956 225.992C160.844 225.192 163.18 223.848 165.1 221.96H167.244C167.884 222.6 167.98 223.272 167.98 223.88C167.98 224.2 167.948 224.52 167.948 224.84C167.948 225.224 168.012 225.576 168.172 225.928L167.244 226.984H151.532C150.54 226.984 149.548 226.888 148.588 226.632L149.228 228.072H158.508V231.56H153.452L148.588 229.224C148.716 229.608 148.78 230.28 148.78 230.696L147.756 238.632C147.756 238.856 147.916 239.048 148.172 239.048H151.244C151.852 239.048 152.268 238.632 152.332 238.088L152.46 237.16H156.14C154.572 240.456 150.284 244.584 145.708 246.664L145.868 247.016C150.444 246.344 155.18 244.04 158.508 240.808V247.208C158.508 247.464 158.732 247.592 158.956 247.592C159.212 247.592 159.564 247.624 159.98 247.624C161.196 247.624 162.732 247.464 162.732 246.344V237.16H169.42C169.356 238.856 169.548 241.672 167.148 241.672C166.86 241.672 164.268 241.48 164.044 241.416L163.98 241.832C166.028 242.728 166.732 243.976 167.148 246.28C171.916 245.448 172.78 244.392 173.26 241.864C173.516 240.552 173.676 238.984 173.676 237.992L174.636 237.352C174.764 237.256 174.86 237.128 174.86 236.968C174.86 236.84 174.796 236.712 174.668 236.648L170.732 233.96L168.94 236.072H162.732V232.648H167.628V233.064C167.628 233.352 167.852 233.48 168.108 233.48H168.908C170.156 233.48 172.012 233.352 172.012 232.2V228.712L172.94 228.136C173.068 228.04 173.132 227.912 173.132 227.784C173.132 227.624 173.068 227.496 172.94 227.432L170.7 226.152C171.34 225.704 171.82 225 171.82 224.456C171.82 223.688 170.956 222.696 169.356 221.96H174.892C175.148 221.96 175.308 221.704 175.308 221.448ZM167.628 231.56H162.732V228.072H167.628V231.56ZM158.508 236.072H152.588L153.036 232.648H158.508V236.072Z" fill="white"/>
<path d="M207.436 222.856C207.436 222.696 207.372 222.568 207.276 222.472L203.372 219.304L201.292 222.28H184.14C183.148 222.28 182.188 222.184 181.228 221.928L181.868 223.368H207.02C207.276 223.368 207.436 223.112 207.436 222.856ZM206.028 233.224C206.028 233.096 205.996 232.968 205.9 232.872L201.804 229.544L199.66 232.648H186.412C185.42 232.648 184.428 232.584 183.468 232.328L184.108 233.736H205.612C205.868 233.736 206.028 233.48 206.028 233.224ZM209.132 244.872C209.132 244.744 209.1 244.616 209.004 244.552L204.94 241.224L202.764 244.328H182.54C181.548 244.328 180.588 244.2 179.628 243.976L180.268 245.416H208.748C208.972 245.416 209.132 245.128 209.132 244.872Z" fill="white"/>
<path d="M243.148 221.512C243.148 221.384 243.116 221.256 242.988 221.192L238.956 218.408L237.42 220.456H220.204L215.404 218.6C215.66 219.08 215.788 219.688 215.788 220.36V247.56C215.788 247.816 216.012 247.944 216.204 247.944H217.164C218.38 247.944 220.076 247.816 220.076 246.76V245.864H237.74V247.336C237.74 247.592 237.932 247.752 238.188 247.752C238.252 247.752 241.164 247.528 241.228 247.528C241.74 247.464 242.06 247.048 242.06 246.536V222.408L242.988 221.864C243.116 221.768 243.148 221.64 243.148 221.512ZM237.74 244.776H220.076V221.544H237.74V244.776ZM236.108 227.848C236.108 227.72 236.044 227.592 235.916 227.496L232.012 224.648L230.316 227.112H227.148L222.252 225.064C222.54 225.576 222.636 226.152 222.636 226.856V241C222.636 241.288 222.86 241.416 223.116 241.416H224.012C225.26 241.416 226.924 241.288 226.924 240.104V237.704H230.636V239.976C230.636 240.2 230.828 240.392 231.02 240.392L234.092 240.104C234.572 240.008 234.924 239.624 234.924 239.176V228.776L235.916 228.2C236.044 228.104 236.108 227.976 236.108 227.848ZM230.636 236.616H226.924V228.2H230.636V236.616Z" fill="white"/>
</svg>
