<svg width="387" height="265" viewBox="0 0 387 265" fill="none" xmlns="http://www.w3.org/2000/svg">
<path fill-rule="evenodd" clip-rule="evenodd" d="M224.803 104.559H258.348L273 151.552V168H118V151.552L132.652 104.559H173.6L198.604 118.657H156.172C151.699 118.657 148.075 122.338 148.075 126.881C148.075 131.424 151.699 135.105 156.172 135.105H233.286C237.759 135.105 241.383 131.424 241.383 126.881C241.383 122.338 237.759 118.657 233.286 118.657H217.125L224.803 104.559Z" fill="#DE2424"/>
<path d="M195.886 104.559L165.04 87.2504L204.445 14.8811L248.015 39.3958L212.465 104.559H224.804L262.744 35.1664L200.204 0L150.311 91.4797L173.6 104.559H195.886Z" fill="#DE2424"/>
<path d="M36.7592 247C36.7592 240.34 31.6592 236.92 25.6592 235.6V235.3C30.6992 234.04 34.4792 231.1 34.4792 225.64C34.4792 218.8 28.7192 215.14 19.8392 215.14H0.15918V217.3C2.31918 217.48 5.13918 217.36 5.13918 220.36V253.78C5.13918 256.84 2.37918 256.72 0.15918 256.9V259H21.1592C30.2192 259 36.7592 254.38 36.7592 247ZM26.1392 226C26.1392 230.8 23.8592 233.26 20.0792 233.98C18.7592 234.46 15.0392 234.46 13.4192 234.46V219.7C13.4192 217.66 15.4592 217.36 17.1992 217.36C23.1992 217.36 26.1392 219.52 26.1392 226ZM27.8192 247.06C27.8192 252.58 25.5392 256.72 19.5392 256.72C18.9992 256.72 15.6992 256.54 15.2792 256.18C14.0792 255.88 13.4192 255.16 13.4192 253.96V237.16H14.4392C21.3992 237.16 27.8192 237.94 27.8192 247.06Z" fill="white"/>
<path d="M95.7064 259.06V256.96C94.7464 256.9 93.1864 256.84 92.4064 256.36C91.3264 256 90.6664 254.98 90.6664 253.3V220.9C90.6664 219.34 91.0864 218.26 92.4664 217.84C92.7664 217.54 94.7464 217.42 95.6464 217.36V215.14H81.7864L70.9864 247.3H70.7464L58.5664 215.14H44.9464V217.36C47.1064 217.54 50.1664 217.36 50.1664 220.36V253.24C50.1664 256.36 46.9864 256.96 44.5264 256.96V259.06H58.5064V256.96C55.7464 256.78 52.6264 256.18 52.6264 252.76V221.38H53.0464L67.2064 259.06H69.5464L82.2064 221.44H82.6864V253.78C82.6864 256.9 79.9264 256.78 77.6464 256.96V259.06H95.7064Z" fill="white"/>
<path d="M134.63 247.54C134.63 240.28 130.31 235.72 120.23 231.76C114.59 229.54 111.17 227.44 111.17 223.18C111.17 219.28 114.17 216.58 118.79 216.58C126.59 216.58 131.03 225.22 131.51 227.98H133.37L132.17 214.42H130.61C130.37 215.62 130.07 217.18 128.57 217.18C127.67 217.18 124.01 214.3 118.13 214.3C108.95 214.24 104.81 219.7 104.81 225.4C104.81 231.4 108.23 236.26 115.31 239.26C119.69 241.12 127.91 243.58 127.91 249.64C127.91 253.36 125.75 257.32 119.21 257.32C110.93 257.32 106.01 249.82 105.23 244.24H103.43L104.45 259.66H106.07C106.55 257.74 107.27 256.9 108.53 256.9C109.85 256.84 114.47 259.72 119.63 259.72C128.69 259.72 134.63 255.04 134.63 247.54Z" fill="white"/>
<path d="M198.921 255.76V255.16C192.261 253.48 187.041 250.12 183.201 245.92C187.281 244.12 190.941 241.78 193.821 239.8H195.801C196.161 239.74 196.401 239.44 196.401 239.08C196.401 238.9 196.281 238.66 196.041 238.54L188.241 233.56C188.241 233.74 188.301 233.92 188.301 234.1C188.301 236.56 183.681 243.04 182.301 244.9C180.441 242.62 178.881 240.1 177.681 237.52L177.021 237.88C178.881 249.4 184.581 258.94 191.541 262.9C192.801 259.54 195.081 257.44 198.921 255.76ZM198.621 228.22C198.621 227.92 198.501 227.68 198.321 227.5L194.301 222.64L191.841 227.08H191.601V218.8L193.221 217.72C193.461 217.54 193.521 217.3 193.521 217.06C193.521 216.82 193.461 216.52 193.221 216.4L186.141 211.3L183.321 215.02H166.341C168.741 213.7 170.481 212.44 171.981 211.24L174.021 210.64C174.321 210.58 174.441 210.28 174.441 210.04C174.441 209.8 174.321 209.56 174.021 209.5L163.881 207.94C164.241 208.36 164.541 209.14 164.541 209.68C164.541 211.48 164.181 213.34 163.761 215.02H156.561L147.741 211.84C148.221 212.8 148.401 213.88 148.401 215.2V227.08H146.961C145.101 227.08 143.301 226.9 141.501 226.42L142.701 229.12H156.201C156.201 229.24 156.261 229.36 156.261 229.48C156.261 233.32 145.521 244.36 142.521 246.4L142.821 246.88C151.161 244.78 158.181 239.8 163.521 234.58L165.141 234.22C165.501 234.1 165.621 233.86 165.621 233.62C165.621 233.38 165.501 233.14 165.201 233.02L156.681 229.12H175.761C173.421 233.02 163.221 239.32 159.201 241.06L159.441 241.66C161.841 241.42 164.241 240.94 166.521 240.4V263.2C166.521 263.74 166.941 263.98 167.361 263.98H169.041C171.321 263.98 174.381 263.74 174.381 261.64V237.94C177.801 236.62 180.741 235.12 182.841 233.8L184.521 233.68C184.881 233.68 185.181 233.32 185.181 233.02C185.181 232.78 185.061 232.6 184.881 232.48L178.581 229.12H197.841C198.321 229.12 198.621 228.64 198.621 228.22ZM166.461 247.84C166.461 247.6 166.281 247.36 165.981 247.24L156.861 243.1V243.46C156.861 248.44 146.481 259.3 142.701 261.94L143.001 262.42C151.461 260.44 159.501 254.32 164.301 248.86L165.921 248.5C166.281 248.38 166.461 248.14 166.461 247.84ZM183.621 227.08H179.661V217.06H183.621V227.08ZM172.221 227.08H168.141V217.06H172.221V227.08ZM160.701 227.08H156.381V217.06H160.701V227.08Z" fill="white"/>
<path d="M261.621 241.9C261.621 241.66 261.501 241.42 261.321 241.24L258.441 238.9C259.461 238.54 260.361 237.22 260.361 236.32C260.361 232.54 254.961 231.94 252.261 231.82L252.081 232.36C254.241 233.86 254.721 236.14 256.101 238.18L254.241 240.82H249.981C249.921 239.98 249.861 239.2 249.861 238.3L249.801 234.28L251.001 233.62C251.241 233.44 251.301 233.14 251.301 232.9C251.301 232.6 251.121 232.3 250.821 232.24L243.021 231.1C243.441 231.7 243.501 232.54 243.501 234.04L243.621 240.82H238.641V235.9C239.121 235.78 239.601 235.66 240.021 235.48L241.941 235.54C242.361 235.54 242.601 235.24 242.601 234.88C242.601 234.7 242.541 234.52 242.361 234.4L237.441 230.62H259.761C260.241 230.62 260.601 230.08 260.601 229.6C260.601 229.36 260.481 229.12 260.301 228.94L255.561 225.46L252.921 228.58H245.361V223.96H255.801C256.281 223.96 256.581 223.48 256.581 223C256.581 222.76 256.461 222.46 256.281 222.34L252.021 218.92L249.681 221.92H245.361V217.84H258.921C259.401 217.84 259.761 217.36 259.761 216.88C259.761 216.64 259.641 216.4 259.461 216.22L254.661 212.26L252.141 215.8H245.421C248.181 214.24 250.401 212.56 251.961 211.06L253.701 210.64C254.001 210.58 254.181 210.28 254.181 210.04C254.181 209.74 254.001 209.44 253.641 209.32L244.041 207.52C244.341 207.88 244.401 208.54 244.401 209.08C244.401 210.76 243.321 214.24 242.841 215.8H238.281C238.701 215.14 239.001 214.24 239.001 213.46C239.001 209.02 231.621 208 228.561 207.76L228.321 208.24C231.141 210.4 232.221 212.74 233.721 215.8H230.781C229.041 215.8 227.241 215.68 225.441 215.2L226.701 217.84H237.621V221.92H233.241C231.501 221.92 229.641 221.8 227.901 221.32L229.101 223.96H237.621V228.58H230.721C228.921 228.58 227.121 228.34 225.321 227.8L226.581 230.62H236.361C234.621 233.08 226.941 236.8 224.241 237.82L224.361 238.36C226.701 238.3 229.401 238 232.101 237.46V240.82H228.381C226.401 240.82 225.381 240.64 223.821 240.22L225.081 242.86H232.101V246.46C230.121 246.64 228.381 246.76 227.421 246.76C226.881 246.76 226.101 246.7 225.621 246.4L227.301 254.26C227.361 254.56 227.541 254.68 227.781 254.68C227.961 254.68 228.141 254.56 228.261 254.32L228.801 252.94C229.641 252.7 230.781 252.22 232.101 251.68V254.86C232.101 255.58 231.501 256.3 230.661 256.3H225.861V256.84C229.041 257.92 230.481 260.74 230.841 264.1C237.141 262.18 238.641 260.38 238.641 257.08V248.56C240.561 247.54 242.361 246.64 243.621 245.98L243.501 245.32C242.181 245.5 240.441 245.74 238.641 245.92V242.86H243.801C244.281 247.36 245.361 251.32 246.861 254.5C244.041 257.74 240.801 260.86 237.921 262.78L238.281 263.32C242.061 262.12 245.601 260.26 248.781 257.98C251.241 261.64 254.241 263.74 257.181 263.74C259.581 263.74 261.441 261.16 261.441 259.3C261.441 257.74 259.941 258.4 259.941 255.22C259.941 254.08 260.121 252.4 260.481 250L259.941 249.82C258.201 254.86 257.301 255.76 256.641 255.76C255.981 255.76 254.961 255.04 253.941 253.6C255.681 251.8 257.181 249.94 258.441 248.02L260.121 247.6C260.481 247.48 260.661 247.24 260.661 247C260.661 246.76 260.541 246.52 260.241 246.4L254.061 242.86H260.781C261.261 242.86 261.621 242.38 261.621 241.9ZM224.541 214C224.541 213.76 224.481 213.52 224.301 213.34L219.561 209.44L217.161 212.92H211.161C209.181 212.92 208.401 212.86 206.601 212.32L207.861 214.96H223.761C224.241 214.96 224.541 214.48 224.541 214ZM226.941 221.26C226.941 220.96 226.821 220.72 226.641 220.54L220.821 215.92L218.001 220.18H210.321C208.461 220.18 206.601 220.06 204.801 219.52L206.061 222.22H226.161C226.641 222.22 226.941 221.74 226.941 221.26ZM224.541 228.28C224.541 228.04 224.481 227.8 224.301 227.62L219.561 223.66L217.161 227.2H211.161C209.181 227.2 208.401 226.96 206.601 226.6L207.801 229.24H223.761C224.241 229.24 224.541 228.76 224.541 228.28ZM224.421 235.36C224.421 235.12 224.361 234.88 224.181 234.7L219.561 230.86L217.161 234.28H211.161C209.181 234.28 208.401 234.1 206.601 233.68L207.861 236.32H223.641C224.121 236.32 224.421 235.84 224.421 235.36ZM225.681 243.76C225.681 243.52 225.561 243.28 225.381 243.1L219.321 238.66L216.621 242.56H213.981L206.001 238.96C206.481 239.86 206.661 241 206.661 242.26V262.78C206.661 263.26 207.021 263.5 207.441 263.5H208.701C210.741 263.5 213.801 263.32 213.801 261.34V257.02H217.101V260.38C217.101 260.86 217.461 261.16 217.941 261.16C218.061 261.16 222.501 260.74 222.621 260.74C223.581 260.62 224.181 259.9 224.181 258.94V245.2L225.321 244.42C225.561 244.24 225.681 244 225.681 243.76ZM253.941 242.86C253.941 244.54 252.321 247.24 251.421 248.56C250.881 246.94 250.461 245.02 250.161 242.86H253.941ZM217.101 254.98H213.801V244.6H217.101V254.98Z" fill="white"/>
<path d="M324.981 220.3C324.981 219.88 324.801 219.46 324.441 219.16L317.361 213.22L314.301 217.3H308.421V212.38L310.041 211.18C310.221 211.06 310.341 210.82 310.341 210.64C310.341 210.28 310.101 209.98 309.681 209.92L299.781 208.96C300.261 209.86 300.501 211 300.501 212.26V217.3H294.501C294.081 215.26 293.241 213.46 292.101 211.72L291.381 211.84V212.38C291.381 219.52 287.001 220.96 287.001 223.54C287.001 225.34 288.441 226.36 290.361 226.36C292.701 226.36 294.921 224.8 294.921 221.02C294.921 220.42 294.861 219.88 294.861 219.34H314.961C314.541 220.78 313.941 222.22 313.221 223.54L312.381 222.88L309.501 227.08H296.721C294.981 227.08 293.241 226.96 291.561 226.54L292.761 229.12H317.721C318.201 229.12 318.501 228.64 318.501 228.16C318.501 227.92 318.441 227.68 318.201 227.5L314.661 224.68C317.121 223.78 319.641 222.7 321.381 221.8L323.781 221.74C324.501 221.74 324.981 221.02 324.981 220.3ZM324.441 255.7C324.441 253.42 321.021 254.92 320.601 251.92L319.881 246.94H319.041L318.141 252.58C317.781 254.68 317.121 255.64 316.101 255.64H314.241C313.581 255.64 313.221 255.16 313.221 254.5V239.08H322.881C323.361 239.08 323.721 238.6 323.721 238.12C323.721 237.88 323.601 237.64 323.421 237.46L317.541 232.84L314.661 237.04H293.661C291.921 237.04 290.241 236.92 288.501 236.44L289.701 239.08H294.921C294.741 250.84 291.321 258.52 283.281 263.56L283.761 264.22C296.421 261.16 302.421 251.68 302.661 239.08H305.721V257.26C305.721 260.74 308.361 263.32 311.721 263.32H316.941C321.261 263.32 324.441 258.82 324.441 255.7ZM290.541 215.5C290.541 215.26 290.421 215.02 290.181 214.78L283.221 209.2L280.581 213.34H276.381L269.121 209.68C269.601 210.58 269.841 211.72 269.841 213.88V263.32C269.841 263.74 270.201 263.98 270.561 263.98H271.821C273.681 263.98 276.441 263.8 276.441 261.94V246.64C279.261 248.14 280.701 250.78 281.121 253.84C288.201 250.84 289.221 248.86 289.221 244.36C289.221 240.82 286.641 235.54 280.101 229.54C282.741 226.24 286.281 220.96 288.261 216.94L290.001 216.28C290.361 216.16 290.541 215.86 290.541 215.5ZM282.381 241.48C282.381 244.96 281.541 245.68 279.861 245.68H276.441V215.38H281.061C280.701 219.4 279.741 226.3 278.901 229.78C280.881 233.44 282.381 238.9 282.381 241.48Z" fill="white"/>
<path d="M386.34 223.54C386.34 222.16 383.16 222.82 382.86 221.14L382.56 219.46C382.68 219.28 382.74 219.04 382.74 218.8V213.34L383.82 212.74C384.06 212.56 384.18 212.32 384.18 212.02C384.18 211.78 384.06 211.48 383.82 211.36L378.54 208.18L376.14 210.88H371.58C369.72 210.88 367.92 210.7 366.18 210.28L367.32 212.92H376.62V217.18H374.34L367.02 214.96C367.5 215.74 367.74 216.7 367.74 217.78V224.62C367.74 226.9 369.48 228.64 372.24 228.64H380.82C384 228.64 386.34 225.4 386.34 223.54ZM366.9 223.54C366.9 222.16 363.78 222.76 363.42 221.14L363.06 219.4C363.18 219.22 363.24 218.98 363.24 218.74V213.28L364.32 212.68C364.56 212.56 364.68 212.26 364.68 212.02C364.68 211.72 364.56 211.42 364.32 211.3L359.04 208.12L356.58 210.88H351.48C349.68 210.88 347.88 210.7 346.08 210.28L347.28 212.92H357.12V217.18H354.9L347.52 214.96C348.06 215.74 348.24 216.7 348.24 217.78V224.62C348.24 226.9 350.04 228.64 352.8 228.64H361.32C364.5 228.64 366.9 225.4 366.9 223.54ZM345.54 219.16C345.54 215.8 339.96 212.38 332.4 211.96L332.04 212.8C334.5 214.3 337.56 218.02 338.7 220.9C339.66 223.3 340.38 223.84 341.7 223.84C343.56 223.84 345.54 221.62 345.54 219.16ZM386.94 254.56L386.58 253.96C385.2 254.26 383.7 254.56 382.08 254.86C383.22 254.26 383.7 252.94 383.7 251.8C383.7 246.64 370.62 245.8 367.68 245.62L367.38 246.28C371.1 247.66 374.52 250.72 377.16 253.42C378.12 254.44 378.78 254.98 379.44 255.28C371.7 256.36 362.52 256.84 355.08 256.84C352.74 256.84 350.52 256.24 348.54 255.1C354.66 254.32 361.32 251.62 364.92 249.34L366.54 249.28C367.02 249.28 367.26 248.98 367.26 248.62C367.26 248.44 367.14 248.26 366.9 248.14L358.68 245.02H385.86C386.28 245.02 386.64 244.48 386.64 244C386.64 243.76 386.58 243.52 386.4 243.4L381.48 239.44L379.02 242.98H376.02V236.98H384.42C384.84 236.98 385.2 236.44 385.2 235.9C385.2 235.66 385.14 235.48 384.96 235.3L380.1 231.34L377.58 234.94H376.02V232.12L377.34 231.28C377.58 231.16 377.64 230.98 377.64 230.8C377.64 230.44 377.34 230.2 376.92 230.14L367.56 229.42C368.04 230.2 368.28 231.16 368.28 232.24V234.94H363.06V232.12L364.44 231.28C364.62 231.16 364.68 230.98 364.68 230.8C364.68 230.5 364.38 230.2 363.96 230.14L354.6 229.42C355.08 230.2 355.32 231.16 355.32 232.24V234.94H353.64C351.78 234.94 349.86 234.7 348.12 234.22L349.38 236.98H355.32V242.98H352.38C350.52 242.98 348.54 242.74 346.86 242.26L348.06 245.02H357.9C357.6 248.2 349.98 253.18 347.52 254.44C346.92 253.96 346.26 253.48 345.72 252.88V238.18L347.1 237.34C347.34 237.16 347.46 236.86 347.46 236.56C347.46 236.32 347.34 236.02 347.1 235.9L340.14 230.86L337.02 235.54H335.46C333.6 235.54 331.8 235.36 330 234.94L331.2 237.58H337.74V253.36L332.1 255.16C331.62 255.16 330.96 254.98 330.54 254.68L333.66 263.02C333.78 263.38 334.08 263.56 334.38 263.56C334.68 263.56 334.98 263.32 335.1 262.9L335.34 261.82L343.74 254.14C346.98 259.78 352.68 263.14 359.04 263.14H382.5C382.62 259.9 384.12 256.6 386.94 254.56ZM381.36 220.06L381.12 221.56C380.88 222.88 380.22 223.66 379.14 223.66H375.24C374.46 223.66 373.74 223.18 373.74 222.34V219.22H376.62V219.82C376.62 220.18 376.92 220.36 377.28 220.36C378.06 220.36 380.34 220.24 381.36 220.06ZM361.86 220.06L361.62 221.56C361.38 222.88 360.72 223.66 359.64 223.66H355.74C354.96 223.66 354.24 223.18 354.24 222.34V219.22H357.12V219.82C357.12 220.18 357.48 220.36 357.78 220.36C358.56 220.36 360.84 220.24 361.86 220.06ZM368.28 242.98H363.06V236.98H368.28V242.98Z" fill="white"/>
</svg>
